HIERARCHY
ROOT base
{
	OFFSET 0.000000 0.000000 0.000000
	CHANNELS 6 Xposition Yposition Zposition Xrotation Yrotation Zrotation
	JOINT torso
	{
		OFFSET 0.000000 0.000000 0.490888
		CHANNELS 3 Xrotation Yrotation Zrotation
		JOINT head
		{
			OFFSET 0.000000 0.000000 0.382645
			CHANNELS 3 Xrotation Yrotation Zrotation
			End Site
			{
				OFFSET 0.000000 0.000000 0.175109
			}
		}
		JOINT arm.upper.left
		{
			OFFSET 0.175109 0.000000 0.324275
			CHANNELS 6 Xposition Yposition Zposition Xrotation Yrotation Zrotation
			JOINT arm.lower.left
			{
				OFFSET 0.000000 0.000000 -0.223750
				CHANNELS 3 Xrotation Yrotation Zrotation
				End Site
				{
					OFFSET 0.012971 0.000000 -0.197808
				}
			}
		}
		JOINT arm.upper.right
		{
			OFFSET -0.175109 0.000000 0.324275
			CHANNELS 6 Xposition Yposition Zposition Xrotation Yrotation Zrotation
			JOINT arm.lower.right
			{
				OFFSET 0.000000 0.000000 -0.223750
				CHANNELS 3 Xrotation Yrotation Zrotation
				End Site
				{
					OFFSET -0.012971 0.000000 -0.197808
				}
			}
		}
	}
	JOINT leg.upper.left
	{
		OFFSET 0.077826 0.000000 0.494131
		CHANNELS 6 Xposition Yposition Zposition Xrotation Yrotation Zrotation
		JOINT leg.lower.left
		{
			OFFSET -0.002826 0.000000 -0.223750
			CHANNELS 3 Xrotation Yrotation Zrotation
			End Site
			{
				OFFSET 0.002826 0.000000 -0.269148
			}
		}
	}
	JOINT leg.upper.right
	{
		OFFSET -0.077826 0.000000 0.494131
		CHANNELS 6 Xposition Yposition Zposition Xrotation Yrotation Zrotation
		JOINT leg.lower.right
		{
			OFFSET 0.002826 0.000000 -0.223750
			CHANNELS 3 Xrotation Yrotation Zrotation
			End Site
			{
				OFFSET -0.002826 0.000000 -0.269148
			}
		}
	}
}
MOTION
Frames: 20
Frame Time: 0.041667
0.000000 0.000000 0.000000 -0.000000 0.000000 -0.000000 -0.000000 0.000000 -0.000000 -0.000000 0.000000 -0.000000 0.175109 0.000000 0.324275 -0.000000 0.000000 0.000000 0.000000 0.000000 -0.000000 -0.175109 0.000000 0.324275 -0.000000 0.000000 0.000000 0.000000 0.000000 -0.000000 0.077826 0.000000 0.494131 -29.510468 0.108094 0.160939 38.067875 -0.273515 -0.014067 -0.077826 0.000000 0.494131 17.120767 0.694870 0.011449 0.346949 -1.273861 -0.075174 
0.000000 0.000000 0.000000 -0.000000 0.000000 -0.000000 -0.000000 0.000000 -0.000000 -0.000000 0.000000 -0.000000 0.175109 0.000000 0.324275 -0.000000 0.000000 0.000000 0.000000 0.000000 -0.000000 -0.175109 0.000000 0.324275 -0.000000 0.000000 0.000000 0.000000 0.000000 -0.000000 0.077826 0.000000 0.494131 -28.263181 0.089619 0.148047 37.050658 -0.232448 -0.025126 -0.077826 0.000000 0.494131 15.873404 0.672731 0.015569 1.364521 -1.234332 -0.059482 
0.000000 0.000000 0.000000 -0.000000 0.000000 -0.000000 -0.000000 0.000000 -0.000000 -0.000000 0.000000 -0.000000 0.175109 0.000000 0.324275 -0.000000 0.000000 0.000000 0.000000 0.000000 -0.000000 -0.175109 0.000000 0.324275 -0.000000 0.000000 0.000000 0.000000 0.000000 -0.000000 0.077826 0.000000 0.494131 -24.491819 0.032057 0.111558 33.983104 -0.107478 -0.054032 -0.077826 0.000000 0.494131 12.101903 0.605270 0.025101 4.432960 -1.113502 -0.016433 
0.000000 0.000000 0.000000 -0.000000 0.000000 -0.000000 -0.000000 0.000000 -0.000000 -0.000000 0.000000 -0.000000 0.175109 0.000000 0.324275 -0.000000 0.000000 0.000000 0.000000 0.000000 -0.000000 -0.175109 0.000000 0.324275 -0.000000 0.000000 0.000000 0.000000 0.000000 -0.000000 0.077826 0.000000 0.494131 -18.358532 -0.066410 0.060542 29.016341 0.097668 -0.086526 -0.077826 0.000000 0.494131 5.968534 0.494561 0.031103 9.400723 -0.913447 0.039395 
0.000000 0.000000 0.000000 -0.000000 0.000000 -0.000000 -0.000000 0.000000 -0.000000 -0.000000 0.000000 -0.000000 0.175109 0.000000 0.324275 -0.000000 0.000000 0.000000 0.000000 0.000000 -0.000000 -0.175109 0.000000 0.324275 -0.000000 0.000000 0.000000 0.000000 0.000000 -0.000000 0.077826 0.000000 0.494131 -10.463043 -0.200334 0.010875 22.648779 0.363520 -0.101984 -0.077826 0.000000 0.494131 -1.926921 0.352076 0.021400 15.768871 -0.651141 0.085296 
0.000000 0.000000 0.000000 -0.000000 0.000000 -0.000000 -0.000000 0.000000 -0.000000 -0.000000 0.000000 -0.000000 0.175109 0.000000 0.324275 -0.000000 0.000000 0.000000 0.000000 0.000000 -0.000000 -0.175109 0.000000 0.324275 -0.000000 0.000000 0.000000 0.000000 0.000000 -0.000000 0.077826 0.000000 0.494131 -1.905013 -0.351800 -0.021605 15.757786 0.651258 -0.085367 -0.077826 0.000000 0.494131 -10.484865 0.200633 -0.011087 22.659766 -0.363411 0.101879 
0.000000 0.000000 0.000000 -0.000000 0.000000 -0.000000 -0.000000 0.000000 -0.000000 -0.000000 0.000000 -0.000000 0.175109 0.000000 0.324275 -0.000000 0.000000 0.000000 0.000000 0.000000 -0.000000 -0.175109 0.000000 0.324275 -0.000000 0.000000 0.000000 0.000000 0.000000 -0.000000 0.077826 0.000000 0.494131 5.984997 -0.494365 -0.031251 9.392315 0.913536 -0.039424 -0.077826 0.000000 0.494131 -18.374811 0.066655 -0.060704 29.024510 -0.097596 0.086423 
0.000000 0.000000 0.000000 -0.000000 0.000000 -0.000000 -0.000000 0.000000 -0.000000 -0.000000 0.000000 -0.000000 0.175109 0.000000 0.324275 -0.000000 0.000000 0.000000 0.000000 0.000000 -0.000000 -0.175109 0.000000 0.324275 -0.000000 0.000000 0.000000 0.000000 0.000000 -0.000000 0.077826 0.000000 0.494131 12.110583 -0.605170 -0.025177 4.428491 1.113548 0.016428 -0.077826 0.000000 0.494131 -24.500350 -0.031917 -0.111643 33.987380 0.107510 0.053969 
0.000000 0.000000 0.000000 -0.000000 0.000000 -0.000000 -0.000000 0.000000 -0.000000 -0.000000 0.000000 -0.000000 0.175109 0.000000 0.324275 -0.000000 0.000000 0.000000 0.000000 0.000000 -0.000000 -0.175109 0.000000 0.324275 -0.000000 0.000000 0.000000 0.000000 0.000000 -0.000000 0.077826 0.000000 0.494131 15.875784 -0.672704 -0.015589 1.363289 1.234344 0.059482 -0.077826 0.000000 0.494131 -28.265507 -0.089579 -0.148070 37.051813 0.232456 0.025107 
0.000000 0.000000 0.000000 -0.000000 0.000000 -0.000000 -0.000000 0.000000 -0.000000 -0.000000 0.000000 -0.000000 0.175109 0.000000 0.324275 -0.000000 0.000000 0.000000 0.000000 0.000000 -0.000000 -0.175109 0.000000 0.324275 -0.000000 0.000000 0.000000 0.000000 0.000000 -0.000000 0.077826 0.000000 0.494131 17.120769 -0.694870 -0.011449 0.346952 1.273861 0.075174 -0.077826 0.000000 0.494131 -29.510471 -0.108094 -0.160939 38.067875 0.273515 0.014068 
0.000000 0.000000 0.000000 -0.000000 0.000000 -0.000000 -0.000000 0.000000 -0.000000 -0.000000 0.000000 -0.000000 0.175109 0.000000 0.324275 -0.000000 0.000000 0.000000 0.000000 0.000000 -0.000000 -0.175109 0.000000 0.324275 -0.000000 0.000000 0.000000 0.000000 0.000000 -0.000000 0.077826 0.000000 0.494131 16.113596 -0.676946 -0.014835 1.169258 1.241910 0.062424 -0.077826 0.000000 0.494131 -28.503319 -0.093139 -0.150497 37.245804 0.240311 0.023056 
0.000000 0.000000 0.000000 -0.000000 0.000000 -0.000000 -0.000000 0.000000 -0.000000 -0.000000 0.000000 -0.000000 0.175109 0.000000 0.324275 -0.000000 0.000000 0.000000 0.000000 0.000000 -0.000000 -0.175109 0.000000 0.324275 -0.000000 0.000000 0.000000 0.000000 0.000000 -0.000000 0.077826 0.000000 0.494131 13.062389 -0.622308 -0.023169 3.654700 1.144262 0.026688 -0.077826 0.000000 0.494131 -25.452150 -0.046728 -0.120492 34.761005 0.139201 0.047315 
0.000000 0.000000 0.000000 -0.000000 0.000000 -0.000000 -0.000000 0.000000 -0.000000 -0.000000 0.000000 -0.000000 0.175109 0.000000 0.324275 -0.000000 0.000000 0.000000 0.000000 0.000000 -0.000000 -0.175109 0.000000 0.324275 -0.000000 0.000000 0.000000 0.000000 0.000000 -0.000000 0.077826 0.000000 0.494131 8.044486 -0.531708 -0.030523 7.725910 0.981227 -0.022603 -0.077826 0.000000 0.494131 -20.434297 0.032887 -0.076649 30.690646 -0.028420 0.077513 
0.000000 0.000000 0.000000 -0.000000 0.000000 -0.000000 -0.000000 0.000000 -0.000000 -0.000000 0.000000 -0.000000 0.175109 0.000000 0.324275 -0.000000 0.000000 0.000000 0.000000 0.000000 -0.000000 -0.175109 0.000000 0.324275 -0.000000 0.000000 0.000000 0.000000 0.000000 -0.000000 0.077826 0.000000 0.494131 1.400863 -0.411406 -0.028025 13.092946 0.761693 -0.069674 -0.077826 0.000000 0.494131 -13.790719 0.143630 -0.029622 25.324381 -0.251907 0.099009 
0.000000 0.000000 0.000000 -0.000000 0.000000 -0.000000 -0.000000 0.000000 -0.000000 -0.000000 0.000000 -0.000000 0.175109 0.000000 0.324275 -0.000000 0.000000 0.000000 0.000000 0.000000 -0.000000 -0.175109 0.000000 0.324275 -0.000000 0.000000 0.000000 0.000000 0.000000 -0.000000 0.077826 0.000000 0.494131 -6.185792 -0.275484 -0.008177 19.204216 0.507630 -0.097996 -0.077826 0.000000 0.494131 -6.204128 0.275724 0.008002 19.213478 -0.507534 0.097922 
0.000000 0.000000 0.000000 -0.000000 0.000000 -0.000000 -0.000000 0.000000 -0.000000 -0.000000 0.000000 -0.000000 0.175109 0.000000 0.324275 -0.000000 0.000000 0.000000 0.000000 0.000000 -0.000000 -0.175109 0.000000 0.324275 -0.000000 0.000000 0.000000 0.000000 0.000000 -0.000000 0.077826 0.000000 0.494131 -13.774426 -0.143398 0.029462 25.316182 0.251984 -0.099098 -0.077826 0.000000 0.494131 1.384452 0.411607 0.027875 13.101284 -0.761604 0.069631 
0.000000 0.000000 0.000000 -0.000000 0.000000 -0.000000 -0.000000 0.000000 -0.000000 -0.000000 0.000000 -0.000000 0.175109 0.000000 0.324275 -0.000000 0.000000 0.000000 0.000000 0.000000 -0.000000 -0.175109 0.000000 0.324275 -0.000000 0.000000 0.000000 0.000000 0.000000 -0.000000 0.077826 0.000000 0.494131 -20.422962 -0.032712 0.076536 30.684949 0.028467 -0.077589 -0.077826 0.000000 0.494131 8.033003 0.531843 0.030422 7.731795 -0.981165 0.022588 
0.000000 0.000000 0.000000 -0.000000 0.000000 -0.000000 -0.000000 0.000000 -0.000000 -0.000000 0.000000 -0.000000 0.175109 0.000000 0.324275 -0.000000 0.000000 0.000000 0.000000 0.000000 -0.000000 -0.175109 0.000000 0.324275 -0.000000 0.000000 0.000000 0.000000 0.000000 -0.000000 0.077826 0.000000 0.494131 -25.446432 0.046823 0.120435 34.758129 -0.139180 -0.047358 -0.077826 0.000000 0.494131 13.056564 0.622376 0.023119 3.657713 -1.144232 -0.026690 
0.000000 0.000000 0.000000 -0.000000 0.000000 -0.000000 -0.000000 0.000000 -0.000000 -0.000000 0.000000 -0.000000 0.175109 0.000000 0.324275 -0.000000 0.000000 0.000000 0.000000 0.000000 -0.000000 -0.175109 0.000000 0.324275 -0.000000 0.000000 0.000000 0.000000 0.000000 -0.000000 0.077826 0.000000 0.494131 -28.501778 0.093166 0.150482 37.245035 -0.240306 -0.023068 -0.077826 0.000000 0.494131 16.112022 0.676964 0.014822 1.170071 -1.241902 -0.062424 
0.000000 0.000000 0.000000 -0.000000 0.000000 -0.000000 -0.000000 0.000000 -0.000000 -0.000000 0.000000 -0.000000 0.175109 0.000000 0.324275 -0.000000 0.000000 0.000000 0.000000 0.000000 -0.000000 -0.175109 0.000000 0.324275 -0.000000 0.000000 0.000000 0.000000 0.000000 -0.000000 0.077826 0.000000 0.494131 -29.510468 0.108094 0.160939 38.067875 -0.273515 -0.014067 -0.077826 0.000000 0.494131 17.120767 0.694870 0.011449 0.346949 -1.273861 -0.075174 
